<svg version="1.1" xmlns="http://www.w3.org/2000/svg" xmlns:xlink="http://www.w3.org/1999/xlink" width="242.85533" height="209.69975" viewBox="0,0,242.85533,209.69975"><g transform="translate(-119.74858,-68.33647)"><g data-paper-data="{&quot;isPaintingLayer&quot;:true}" fill-rule="nonzero" stroke-linejoin="miter" stroke-miterlimit="10" stroke-dasharray="" stroke-dashoffset="0" style="mix-blend-mode: normal"><path d="M155.84963,180c0,-46.47496 37.6754,-84.15037 84.15037,-84.15037c46.47496,0 84.15037,37.6754 84.15037,84.15037c0,46.47496 -37.6754,84.15037 -84.15037,84.15037c-46.47496,0 -84.15037,-37.6754 -84.15037,-84.15037z" fill="#ffffff" stroke="#ff0000" stroke-width="25" stroke-linecap="butt"/><path d="M204.83863,83.08756l-73.51138,73.23315c0,0 -14.49962,-18.19175 -11.0473,-42.1867c2.98875,-20.77292 26.14865,-41.2926 44.85697,-44.90465c26.82155,-5.17848 39.70171,13.85819 39.70171,13.85819z" fill="#ff0000" stroke="none" stroke-width="0" stroke-linecap="butt"/><path d="M317.21557,70.77705c18.70832,3.61205 41.86823,24.13173 44.85697,44.90465c3.45232,23.99494 -11.0473,42.1867 -11.0473,42.1867l-73.51139,-73.23315c0,0 12.88016,-19.03667 39.70171,-13.85819z" data-paper-data="{&quot;index&quot;:null}" fill="#ff0000" stroke="none" stroke-width="0" stroke-linecap="butt"/><path d="M188.6467,247.59l-21.57702,16.39853" fill="none" stroke="#ff0000" stroke-width="25" stroke-linecap="round"/><path d="M311.02567,265.53622l-21.57702,-16.39854" data-paper-data="{&quot;index&quot;:null}" fill="none" stroke="#ff0000" stroke-width="25" stroke-linecap="round"/><path d="M240.43154,179.40663h29.34474" fill="none" stroke="#000000" stroke-width="25" stroke-linecap="round"/><path d="M239.56846,131.07411v48.33252" fill="none" stroke="#000000" stroke-width="25" stroke-linecap="round"/></g></g></svg>